{
  "accessors": [
    {
      "bufferView": 2,
      "componentType": 5126,
      "count": 1482,
      "max": [
        10.234718322753906,
        10.229459762573242,
        0.02021528035402298
      ],
      "min": [
        -10.213690757751465,
        -10.229460716247559,
        0.0
      ],
      "type": "VEC3"
    },
    {
      "bufferView": 2,
      "byteOffset": 17784,
      "componentType": 5126,
      "count": 1482,
      "max": [
        1.0,
        0.9994862675666809,
        1.0
      ],
      "min": [
        -1.0,
        -0.9994862675666809,
        -1.0
      ],
      "type": "VEC3"
    },
    {
      "bufferView": 1,
      "componentType": 5126,
      "count": 1482,
      "max": [
        0.9869080781936646,
        0.9695549011230469
      ],
      "min": [
        0.03167232125997543,
        0.024204861372709274
      ],
      "type": "VEC2"
    },
    {
      "bufferView": 0,
      "componentType": 5125,
      "count": 6174,
      "type": "SCALAR"
    }
  ],
  "asset": {
    "extras": {
      "author": "Nokura (https://sketchfab.com/Nokura)",
      "license": "CC-BY-4.0 (http://creativecommons.org/licenses/by/4.0/)",
      "source": "https://sketchfab.com/3d-models/a-generic-cd-5718dfe09c164af88e4a66c45c5029f2",
      "title": "A Generic CD"
    },
    "generator": "Sketchfab-14.49.0",
    "version": "2.0"
  },
  "bufferViews": [
    {
      "buffer": 0,
      "byteLength": 24696,
      "name": "floatBufferViews",
      "target": 34963
    },
    {
      "buffer": 0,
      "byteLength": 11856,
      "byteOffset": 24696,
      "byteStride": 8,
      "name": "floatBufferViews",
      "target": 34962
    },
    {
      "buffer": 0,
      "byteLength": 35568,
      "byteOffset": 36552,
      "byteStride": 12,
      "name": "floatBufferViews",
      "target": 34962
    }
  ],
  "buffers": [
    {
      "byteLength": 72120,
      "uri": "scene.bin"
    }
  ],
  "extensionsRequired": [
    "KHR_materials_pbrSpecularGlossiness"
  ],
  "extensionsUsed": [
    "KHR_materials_pbrSpecularGlossiness"
  ],
  "images": [
    {
      "uri": "textures/CD_T1_diffuse.png"
    }
  ],
  "materials": [
    {
      "doubleSided": true,
      "extensions": {
        "KHR_materials_pbrSpecularGlossiness": {
          "diffuseFactor": [
            1.0,
            1.0,
            1.0,
            1.0
          ],
          "diffuseTexture": {
            "index": 0
          },
          "glossinessFactor": 0.6981498269075157,
          "specularFactor": [
            0.1323290521589409,
            0.1323290521589409,
            0.1323290521589409
          ]
        }
      },
      "name": "CD_T1"
    }
  ],
  "meshes": [
    {
      "name": "Cylinder001_CD_T1_0",
      "primitives": [
        {
          "attributes": {
            "NORMAL": 1,
            "POSITION": 0,
            "TEXCOORD_0": 2
          },
          "indices": 3,
          "material": 0,
          "mode": 4
        }
      ]
    }
  ],
  "nodes": [
    {
      "children": [
        1
      ],
      "matrix": [
        0.6765591502189636,
        0.36747398972511275,
        0.6381462216377259,
        0.0,
        0.0,
        0.8665893077850343,
        -0.4990220367908476,
        0.0,
        -0.7363882660865784,
        0.3376179337501525,
        0.5862989425659181,
        0.0,
        0.0,
        0.0,
        0.0,
        1.0
      ],
      "name": "Sketchfab_model"
    },
    {
      "children": [
        2
      ],
      "matrix": [
        0.02539999969303608,
        0.0,
        0.0,
        0.0,
        0.0,
        0.0,
        0.02539999969303608,
        0.0,
        0.0,
        -0.02539999969303608,
        0.0,
        0.0,
        0.0,
        0.0,
        0.0,
        1.0
      ],
      "name": "6bce03ef1261477ea1d7c77852ae753d.fbx"
    },
    {
      "children": [
        3
      ],
      "name": "RootNode"
    },
    {
      "children": [
        4
      ],
      "matrix": [
        1.0,
        0.0,
        0.0,
        0.0,
        0.0,
        0.011754090898570602,
        0.9999309182874324,
        0.0,
        0.0,
        -0.9999309182874324,
        0.011754090898570602,
        0.0,
        -0.10903742164373398,
        0.0,
        0.14377643167972565,
        1.0
      ],
      "name": "Cylinder001"
    },
    {
      "mesh": 0,
      "name": "Cylinder001_CD_T1_0"
    }
  ],
  "samplers": [
    {
      "magFilter": 9729,
      "minFilter": 9987,
      "wrapS": 10497,
      "wrapT": 10497
    }
  ],
  "scene": 0,
  "scenes": [
    {
      "name": "Sketchfab_Scene",
      "nodes": [
        0
      ]
    }
  ],
  "textures": [
    {
      "sampler": 0,
      "source": 0
    }
  ]
}
